#tb 0: 1/25
0,          0,          0,        1,   152064, 0x6c1ff6a7
0,          1,          1,        1,   152064, 0x17f1ff3a
0,          2,          2,        1,   152064, 0xf7ddcda8
0,          3,          3,        1,   152064, 0xdcb64a37
0,          4,          4,        1,   152064, 0x4d2ad1db
0,          5,          5,        1,   152064, 0x2e49028a
0,          6,          6,        1,   152064, 0xcebb0f39
0,          7,          7,        1,   152064, 0xac74e574
0,          8,          8,        1,   152064, 0x8cd667e5
0,          9,          9,        1,   152064, 0xda511cf6
0,         10,         10,        1,   152064, 0x795c45c1
0,         11,         11,        1,   152064, 0x6034397c
0,         12,         12,        1,   152064, 0xafb4b03d
0,         13,         13,        1,   152064, 0xd73b1785
0,         14,         14,        1,   152064, 0xd873a98f
0,         15,         15,        1,   152064, 0x07ac191e
0,         16,         16,        1,   152064, 0x14fa5413
0,         17,         17,        1,   152064, 0xe6d1667e
0,         18,         18,        1,   152064, 0x1cc2a92e
0,         19,         19,        1,   152064, 0x4a878e35
0,         20,         20,        1,   152064, 0x4adfa52c
0,         21,         21,        1,   152064, 0x8dbb370b
0,         22,         22,        1,   152064, 0x4d66a69a
0,         23,         23,        1,   152064, 0x2dcb66da
0,         24,         24,        1,   152064, 0x74591150
0,         25,         25,        1,   152064, 0x259eb13f
0,         26,         26,        1,   152064, 0xe5c96dd3
0,         27,         27,        1,   152064, 0x0fb52fe3
0,         28,         28,        1,   152064, 0x47c506a0
0,         29,         29,        1,   152064, 0xcc09ca7a
0,         30,         30,        1,   152064, 0xc3430f03
0,         31,         31,        1,   152064, 0x702b1a73
0,         32,         32,        1,   152064, 0x4f385186
0,         33,         33,        1,   152064, 0x07a34aa5
0,         34,         34,        1,   152064, 0x698310b0
0,         35,         35,        1,   152064, 0x5fa469bc
0,         36,         36,        1,   152064, 0xb6ab39ef
0,         37,         37,        1,   152064, 0xbb6dc59d
0,         38,         38,        1,   152064, 0xe5fa7503
0,         39,         39,        1,   152064, 0xd367512a
0,         40,         40,        1,   152064, 0x215c0ca7
0,         41,         41,        1,   152064, 0x6bea4847
0,         42,         42,        1,   152064, 0xba03f875
0,         43,         43,        1,   152064, 0x3ac282cd
0,         44,         44,        1,   152064, 0x23aee807
0,         45,         45,        1,   152064, 0x4274c84c
0,         46,         46,        1,   152064, 0xdfdacf4b
0,         47,         47,        1,   152064, 0xb2de9e6e
0,         48,         48,        1,   152064, 0x456b684e
0,         49,         49,        1,   152064, 0xa6297c83
